<svg xmlns="http://www.w3.org/2000/svg" width="512" height="512" viewBox="0 0 512 512" role="img"><title>Seebugbus mark, monochrome</title><defs><clipPath id="bc"><rect x="128" y="198" width="256" height="122" rx="34"/></clipPath><clipPath id="bd"><rect width="512" height="512" rx="96"/></clipPath></defs><g clip-path="url(#bd)"><path d="M56 512 L56 300 A200 200 0 0 1 456 300 L456 512 Z" fill="#2B2118" opacity="0.20"/></g><path d="M56 500 L56 300 A200 200 0 0 1 456 300 L456 500" fill="none" stroke="#2B2118" stroke-width="18"/><path d="M60 394 C152 394 150 364 256 364 C362 364 360 394 452 394" fill="none" stroke="#2B2118" stroke-width="22" stroke-linecap="round"/><rect x="196" y="178" width="120" height="17" rx="8" fill="#2B2118"/><rect x="128" y="198" width="256" height="122" rx="34" fill="none" stroke="#2B2118" stroke-width="18"/><rect x="128" y="252" width="256" height="18" fill="#2B2118"/><circle cx="178" cy="320" r="33" fill="#2B2118"/><circle cx="334" cy="320" r="33" fill="#2B2118"/></svg>